# xmcd CD database file
#
# Track frame offsets:
#	150
#	20550
#	51935
#	77852
#	112582
#	138327
#	149196
#	162610
#	176547
#	188316
#	199387
#	210983
#	221242
#	232727
#	249548
#	263674
#	278238
#
# Disc length: 3845 seconds
#
# Revision: 0
# Processed by: cddbd v1.5.2PL0 Copyright (c) Steve Scherf et al.
# Submitted via: CDex 1.51
#
DISCID=f70f0311
DTITLE=Oscar Peterson - Eight (Am Songbook) 1-4
DYEAR=1959
DGENRE=Jazz
TTITLE0=Liza (All The Clouds'll Roll Away) (Gershwin)
TTITLE1=Con Alma (Dizzy Gillespie)
TTITLE2=Close Your Eyes (Bernice Petkere)
TTITLE3=The Maidens Of Cadiz (Leo delibes)
TTITLE4=My Heart Stood Still (Lorenz Hart and Richard Rodgers)
TTITLE5=Cotton Tail
TTITLE6=Just A-sittin''and A-rockin'
TTITLE7=Take The "A" Train
TTITLE8=John Hardy's Wife
TTITLE9=Sophisticated Lady
TTITLE10=Don't Get Around Much Anymore
TTITLE11=Rockin' In Rhythm
TTITLE12=Prelude To A Kiss
TTITLE13=In A Mellow Tone
TTITLE14=Things Ain't What They Used To Be
TTITLE15=Got It Bad (And That Ain't Good)
TTITLE16=Do NOthin' Till You Hear From Me
EXTD=YEAR: 1959
EXTT0=
EXTT1=
EXTT2=
EXTT3=
EXTT4=
EXTT5=
EXTT6=
EXTT7=
EXTT8=
EXTT9=
EXTT10=
EXTT11=
EXTT12=
EXTT13=
EXTT14=
EXTT15=
EXTT16=
PLAYORDER=
